# xmcd
#
# Track frame offsets:
#	150
#	10975
#	24131
#	35299
#	49956
#	59741
#	66837
#	75444
#	84920
#	97078
#	105228
#	115676
#	124487
#	132344
#	144162
#	158362
#	167533
#
# Disc length: 2336 seconds
#
# Revision: 0
# Processed by: cddbd v1.5.1PL0 Copyright (c) Steve Scherf et al.
# Submitted via: dBpowerAMP V4.0
#
DISCID=cd091e11
DTITLE=Jim Reeves - If You Were Mine
DYEAR=2004
DGENRE=Country
TTITLE0=Just Call Me Lonesome
TTITLE1=How's The World treating You?
TTITLE2=If Heartache Is The Fashion
TTITLE3=Making Believe
TTITLE4=Dear Hearts And Gentle People
TTITLE5=I'm Beginning To Forget You
TTITLE6=If You Were Mine
TTITLE7=Home
TTITLE8=Your Old Love Letters
TTITLE9=Breeze
TTITLE10=An Evening Prayer
TTITLE11=Wind Up Doll
TTITLE12=Til The End Of The World
TTITLE13=I've Lived A Lot In My Time
TTITLE14=Highway To Nowhere
TTITLE15=Beyond The Shadow Of A Doubt
TTITLE16=Everywhere You Go
EXTD=
EXTT0=
EXTT1=
EXTT2=
EXTT3=
EXTT4=
EXTT5=
EXTT6=
EXTT7=
EXTT8=
EXTT9=
EXTT10=
EXTT11=
EXTT12=
EXTT13=
EXTT14=
EXTT15=
EXTT16=
PLAYORDER=
